PathFileType	4	(X/Y/Z)	C:/Users/opensim2020/Desktop/walking_exp_matlab/subject06_walking13_straight_01.trc																																																																																																																																																				
DataRate	CameraRate	NumFrames	NumMarkers	Units	OrigDataRate	OrigDataStartFrame	OrigNumFrames																																																																																																																																																
100	100	4	50	mm	100	889	163																																																																																																																																																
Frame#	Time	LFHD			RFHD			LBHD			RBHD			C7			T10			CLAV			STRN			RBAK			LSHO			LUPA			LELB			LFRM			LWRA			LWRB			LFIN			RSHO			RUPA			RELB			RFRM			RWRA			RWRB			RFIN			LASI			RASI			LPSI			RPSI			LTHI			LKNE			LTIB			LANK			LHEE			LTOE			RTHI			RKNE			RTIB			RANK			RHEE			RTOE			*39			*40			*41			*42			*43			*44			*45			*46			*47			*48			*49		
		X1	Y1	Z1	X2	Y2	Z2	X3	Y3	Z3	X4	Y4	Z4	X5	Y5	Z5	X6	Y6	Z6	X7	Y7	Z7	X8	Y8	Z8	X9	Y9	Z9	X10	Y10	Z10	X11	Y11	Z11	X12	Y12	Z12	X13	Y13	Z13	X14	Y14	Z14	X15	Y15	Z15	X16	Y16	Z16	X17	Y17	Z17	X18	Y18	Z18	X19	Y19	Z19	X20	Y20	Z20	X21	Y21	Z21	X22	Y22	Z22	X23	Y23	Z23	X24	Y24	Z24	X25	Y25	Z25	X26	Y26	Z26	X27	Y27	Z27	X28	Y28	Z28	X29	Y29	Z29	X30	Y30	Z30	X31	Y31	Z31	X32	Y32	Z32	X33	Y33	Z33	X34	Y34	Z34	X35	Y35	Z35	X36	Y36	Z36	X37	Y37	Z37	X38	Y38	Z38	X39	Y39	Z39	X40	Y40	Z40	X41	Y41	Z41	X42	Y42	Z42	X43	Y43	Z43	X44	Y44	Z44	X45	Y45	Z45	X46	Y46	Z46	X47	Y47	Z47	X48	Y48	Z48	X49	Y49	Z49	X50	Y50	Z50
																																																																																																																																																							
41	0.4	-452.77902	1658.80688	-1084.2533	-464.4783	1648.26636	-953.33276	-586.64899	1607.54639	-1096.37061	-596.6106	1602.79224	-967.46295	-596.28693	1450.05334	-1034.87537	-641.47485	1123.09717	-1020.9917	-487.71094	1369.52734	-1027.81714	-451.81317	1194.51807	-1025.64954	-675.59174	1286.15601	-949.06537	-536.56671	1400.99194	-1192.44458	-571.48431	1202.95178	-1262.63037	-599.56305	1093.8468	-1273.14026	-599.55151	942.92719	-1295.05383	-560.3714	820.1225	-1249.21716	-617.76996	825.3493	-1292.22815	-592.11621	737.737	-1288.15283	-534.7796	1408.27014	-870.12207	-576.61304	1216.08948	-772.64636	-568.3512	1094.75513	-754.78748	-535.5556	979.65607	-736.25952	-452.7879	854.0473	-770.30585	-504.54944	846.39911	-727.86017	-453.90076	779.41425	-726.02838	-453.36316	965.01923	-1113.18042	-478.30563	964.58594	-896.30945	-613.69629	990.04901	-1101.72754	-624.48822	986.09857	-934.54291	-488.66071	649.85986	-1180.26135	-467.7099	488.79376	-1153.90295	-473.54892	230.91766	-1139.54675	-456.88699	62.28855	-1090.06726	-497.04404	49.028	-1044.00598	-310.95377	36.92699	-1081.86731	-510.63766	621.23444	-844.98334	-491.95584	495.39478	-859.76373	-683.40302	326.78836	-866.12048	-836.10339	224.64714	-912.05951	-867.62384	249.7872	-959.24933	-821.55957	62.25667	-921.0025	-556.79297	1699.90723	-1034.51794	NaN	NaN	NaN	NaN	NaN	NaN	NaN	NaN	NaN	NaN	NaN	NaN	NaN	NaN	NaN	NaN	NaN	NaN	NaN	NaN	NaN	NaN	NaN	NaN	NaN	NaN	NaN	NaN	NaN	NaN
42	0.41	-441.96881	1660.02307	-1084.75391	-453.92972	1649.41077	-953.92865	-575.9198	1608.64648	-1097.15002	-586.01532	1603.83057	-968.20349	-585.5285	1451.23877	-1035.802	-630.92651	1124.11499	-1022.23419	-477.08676	1370.67126	-1028.30872	-441.4176	1195.42371	-1026.24133	-665.37762	1287.27625	-950.92126	-525.19214	1402.07581	-1193.21997	-557.85486	1203.57361	-1263.99817	-584.15558	1094.11121	-1275.10291	-580.61121	943.22571	-1297.13525	-538.66321	821.54163	-1250.95374	-596.00085	825.23981	-1294.17871	-567.85822	738.34314	-1290.02856	-524.70642	1409.09277	-870.67529	-567.67548	1216.75891	-773.72235	-560.2934	1095.1781	-756.16565	-530.6994	979.16406	-737.38086	-451.8049	850.89294	-770.86572	-503.4548	844.69806	-728.71063	-455.43079	776.13928	-726.76447	-443.38483	965.65216	-1113.82349	-468.36877	965.67242	-896.4671	-603.664	991.12817	-1102.63757	-614.25507	986.82135	-935.53302	-482.73447	650.45123	-1180.81653	-464.71234	488.72134	-1154.89709	-473.12265	231.0761	-1139.82922	-457.26215	62.28693	-1090.19421	-497.27942	48.9873	-1044.28369	-310.90158	36.71628	-1081.87256	-494.35193	622.95813	-845.87347	-472.10022	497.76059	-860.73828	-662.00586	328.28888	-865.47681	-816.26062	228.86053	-911.47827	-848.95361	252.58313	-958.77179	-797.85242	66.55536	-918.00739	-546.1615	1701.03369	-1035.19775	NaN	NaN	NaN	NaN	NaN	NaN	NaN	NaN	NaN	NaN	NaN	NaN	NaN	NaN	NaN	NaN	NaN	NaN	NaN	NaN	NaN	NaN	NaN	NaN	NaN	NaN	NaN	NaN	NaN	NaN
43	0.42	-431.42886	1661.0072	-1085.31689	-443.43307	1650.45605	-954.41144	-565.15869	1609.73364	-1097.82727	-575.5246	1604.84937	-968.94659	-574.92493	1452.34912	-1036.67786	-620.54858	1125.01563	-1023.32227	-466.56857	1371.61584	-1028.8092	-430.86813	1196.3905	-1026.74609	-655.15277	1288.18677	-952.7738	-513.88678	1402.7887	-1193.89136	-544.15466	1204.01318	-1265.42847	-568.54108	1094.18616	-1277.32166	-561.50793	943.42285	-1299.12427	-516.77411	822.91736	-1252.69104	-574.10175	825.02863	-1295.93872	-543.33142	739.17377	-1292.01013	-514.73114	1409.77625	-871.13123	-558.72882	1217.22107	-774.7951	-552.39874	1095.49084	-757.47919	-525.84033	978.70892	-738.5163	-450.89407	847.83752	-771.51801	-502.66177	843.46814	-729.2168	-456.8728	773.22235	-727.4668	-433.80096	966.20557	-1114.57324	-458.21979	966.66431	-896.88409	-593.84845	992.17285	-1103.33447	-604.5282	987.70813	-935.99292	-476.79688	651.00055	-1181.37024	-461.76221	488.79126	-1155.84875	-472.4783	231.33698	-1140.45032	-457.10413	62.66865	-1090.78186	-497.55762	48.97985	-1044.3479	-310.85168	36.4688	-1082.06665	-478.30161	624.91211	-846.66071	-452.80936	500.49841	-861.49854	-641.52002	330.82599	-865.72205	-795.54797	231.70117	-910.7959	-830.32629	253.41325	-957.927	-770.99487	70.64532	-914.38824	-535.55243	1702.09338	-1035.802	NaN	NaN	NaN	NaN	NaN	NaN	NaN	NaN	NaN	NaN	NaN	NaN	NaN	NaN	NaN	NaN	NaN	NaN	NaN	NaN	NaN	NaN	NaN	NaN	NaN	NaN	NaN	NaN	NaN	NaN
44	0.43	-420.73328	1661.98096	-1085.73608	-432.94952	1651.40759	-954.89996	-554.4231	1610.76331	-1098.39783	-565.01624	1605.77332	-969.58673	-564.43127	1453.39905	-1037.48657	-610.33673	1125.84509	-1024.33984	-456.17188	1372.43604	-1029.1814	-420.77325	1197.16028	-1027.2677	-645.09631	1288.95654	-954.48669	-502.63147	1403.39514	-1194.45215	-530.43225	1204.21436	-1266.8186	-552.89758	1093.89038	-1279.32739	-542.21234	943.46967	-1301.02832	-494.58899	824.30157	-1254.42908	-551.97797	824.79724	-1297.60229	-518.59412	740.04187	-1293.99109	-504.91464	1410.3739	-871.52893	-549.99579	1217.64795	-775.81293	-544.55951	1095.77722	-758.83276	-521.03259	978.31079	-739.61505	-450.02225	845.09503	-772.20416	-501.8259	842.36823	-729.72192	-458.44205	770.61359	-728.06677	-424.23752	966.87109	-1115.40247	-447.92166	967.70081	-897.50671	-584.4209	993.39539	-1103.61865	-594.51099	988.5061	-936.4184	-472.14688	651.20203	-1181.302	-458.80728	489.02783	-1156.87402	-471.50668	231.61394	-1141.15991	-457.18106	62.72194	-1091.01184	-497.63846	49.08479	-1044.66602	-310.79694	36.20017	-1082.18835	-462.5481	627.0791	-847.34766	-433.78448	503.35034	-862.51984	-621.24829	333.82346	-866.52911	-774.30145	232.90038	-909.89258	-811.07184	252.57053	-956.66455	-742.27515	73.73633	-911.29248	-524.93549	1703.04346	-1036.4668	NaN	NaN	NaN	NaN	NaN	NaN	NaN	NaN	NaN	NaN	NaN	NaN	NaN	NaN	NaN	NaN	NaN	NaN	NaN	NaN	NaN	NaN	NaN	NaN	NaN	NaN	NaN	NaN	NaN	NaN
